<?xml version="1.0" standalone="no"?>
<!DOCTYPE svg PUBLIC "-//W3C//DTD SVG 20010904//EN"
 "http://www.w3.org/TR/2001/REC-SVG-20010904/DTD/svg10.dtd">
<svg version="1.0" xmlns="http://www.w3.org/2000/svg"
 width="631.000000pt" height="543.000000pt" viewBox="0 0 631.000000 543.000000"
 preserveAspectRatio="xMidYMid meet">

<g transform="translate(0.000000,543.000000) scale(0.100000,-0.100000)"
fill="#000000" stroke="none">
<path d="M2830 5001 c-46 -14 -85 -39 -122 -78 -64 -66 -71 -95 -77 -313 l-6
-194 -795 -168 c-437 -92 -814 -172 -838 -179 -97 -27 -178 -127 -189 -232 -4
-42 54 -329 316 -1572 177 -836 328 -1538 336 -1561 21 -57 74 -115 129 -142
88 -44 112 -42 576 57 234 49 706 149 1050 221 671 141 705 150 760 220 57 72
72 139 56 247 l-8 52 534 3 533 3 54 30 c62 34 115 99 130 162 8 29 11 547 11
1636 0 1799 7 1651 -80 1737 -85 86 1 80 -1244 79 -606 0 -1112 -4 -1126 -8z
m2266 -128 c17 -12 40 -35 50 -50 18 -27 19 -80 22 -1623 l2 -1595 -22 -45
c-17 -33 -35 -51 -68 -67 l-44 -23 -1071 0 c-671 0 -1083 4 -1105 10 -20 5
-51 26 -70 45 l-35 36 -3 1612 c-2 1556 -2 1613 16 1647 12 20 37 44 62 57
l44 23 1095 -2 1096 -3 31 -22z m-2466 -964 c0 -327 -2 -390 -14 -386 -7 3
-44 15 -82 26 -109 33 -186 84 -287 194 -122 131 -144 130 -187 -13 -46 -155
-101 -235 -257 -373 -74 -65 -56 -101 67 -138 149 -44 239 -104 340 -224 50
-60 68 -75 90 -75 37 0 44 10 86 131 51 147 96 217 194 299 l50 42 0 -574 -1
-573 -25 30 c-76 88 -85 95 -114 95 -36 0 -39 -5 -88 -157 -63 -191 -127 -282
-312 -444 -72 -63 -74 -67 -65 -95 9 -26 23 -33 145 -74 204 -68 287 -123 426
-283 71 -81 89 -97 114 -97 34 0 37 4 71 90 18 45 30 63 40 60 8 -3 254 -6
546 -8 l533 -3 7 -27 c5 -15 8 -56 8 -92 0 -72 -23 -118 -73 -144 -15 -8 -502
-114 -1081 -236 -942 -198 -1059 -221 -1092 -211 -45 14 -85 45 -103 79 -7 15
-159 716 -336 1559 l-323 1531 17 46 c28 72 60 90 226 126 342 74 1456 309
1468 309 9 1 12 -83 12 -390z m-425 -290 c53 -55 173 -134 244 -160 l58 -20
-58 -59 c-60 -62 -125 -163 -154 -241 l-17 -47 -57 57 c-61 59 -156 120 -231
148 -25 9 -47 18 -49 19 -2 2 22 31 54 66 66 74 116 152 141 226 10 28 21 52
24 52 3 0 24 -19 45 -41z m425 -1760 c0 -259 8 -316 51 -378 27 -38 29 -47 19
-69 -11 -25 -11 -25 -90 54 -119 118 -209 172 -394 238 -17 6 -10 15 46 70
114 111 193 234 235 367 l18 58 58 -57 57 -56 0 -227z"/>
<path d="M3993 4543 c-7 -2 -31 -39 -54 -81 -78 -143 -144 -210 -291 -294
-134 -77 -132 -101 9 -179 127 -71 201 -145 271 -272 76 -137 107 -141 172
-22 85 155 149 219 297 300 125 69 125 101 -5 172 -117 64 -220 168 -284 284
-52 95 -71 110 -115 92z m67 -229 c40 -65 149 -171 209 -205 22 -12 41 -25 41
-28 0 -3 -23 -19 -51 -36 -59 -35 -185 -163 -214 -218 -11 -20 -22 -37 -25
-37 -3 0 -18 23 -35 51 -35 59 -163 185 -218 214 -20 11 -37 22 -37 25 0 3 18
15 41 28 59 34 179 152 214 211 17 28 32 51 35 51 3 0 21 -25 40 -56z"/>
<path d="M4462 3674 c-20 -14 -22 -23 -22 -110 l0 -94 -88 0 c-101 0 -132 -14
-132 -59 0 -44 15 -51 122 -51 l98 0 0 -93 c0 -104 11 -129 53 -129 48 0 56
16 59 120 l3 97 94 3 c52 1 101 8 108 14 7 6 13 23 13 39 0 45 -31 59 -132 59
l-88 0 0 94 c0 87 -2 96 -22 110 -12 9 -27 16 -33 16 -6 0 -21 -7 -33 -16z"/>
<path d="M3512 3454 c-20 -14 -22 -23 -22 -110 l0 -94 -90 0 c-83 0 -93 -2
-115 -25 -30 -29 -31 -36 -6 -66 17 -22 29 -24 115 -27 l96 -4 0 -94 c0 -87 2
-95 24 -109 27 -18 69 -7 80 20 3 9 6 55 6 101 l0 84 83 0 c100 0 131 13 135
57 5 49 -24 63 -130 63 l-88 0 0 90 c0 77 -3 93 -20 110 -24 24 -38 25 -68 4z"/>
<path d="M4038 3023 c-8 -10 -32 -49 -53 -88 -100 -183 -194 -280 -364 -375
-61 -34 -115 -68 -121 -75 -6 -8 -10 -26 -8 -42 3 -23 18 -36 111 -88 193
-107 270 -184 378 -377 85 -154 106 -154 193 0 74 130 86 147 153 216 60 61
143 119 252 176 74 40 99 70 84 103 -6 13 -53 45 -113 77 -180 97 -271 188
-371 368 -29 51 -58 100 -66 108 -20 19 -57 18 -75 -3z m72 -210 c35 -67 127
-180 187 -230 27 -23 82 -62 122 -87 l72 -44 -48 -27 c-136 -79 -257 -200
-337 -338 l-28 -48 -44 72 c-82 133 -198 246 -317 309 -26 14 -47 28 -47 31 0
4 33 26 73 49 94 56 231 193 287 288 23 39 45 72 49 72 3 0 17 -21 31 -47z"/>
<path d="M1846 2664 c-20 -19 -20 -42 -1 -119 23 -95 26 -90 -72 -110 -49 -9
-94 -22 -100 -27 -18 -15 -16 -63 3 -82 19 -19 31 -19 114 -1 100 22 96 24
110 -52 15 -81 27 -115 43 -125 21 -14 54 -8 72 12 17 19 17 23 0 110 -10 50
-16 93 -13 95 3 3 42 13 87 22 92 18 111 31 111 74 0 47 -32 55 -132 35 -46
-9 -86 -16 -89 -16 -3 0 -14 39 -24 86 -10 47 -24 92 -32 100 -19 19 -58 18
-77 -2z"/>
</g>
</svg>
